# xmcd
#
# Track frame offsets:
#	150
#	11785
#	27495
#	47695
#	58557
#	76442
#	94407
#	111645
#	125132
#	142015
#	157220
#	172260
#	187370
#	198650
#	214572
#	231357
#	246720
#	267232
#
# Disc length: 3787 seconds
#
# Revision: 0
# Processed by: cddbd v1.5PL3 Copyright (c) Steve Scherf et al.
# Submitted via: dBpowerAMP V4.0
#
DISCID=2b0ec912
DTITLE=Ottar Bighand Johansen - The 16+2 very Best of Ottar Bighand Johansen
DYEAR=1991
DGENRE=Country
TTITLE0=Red Lips, Blue Eyes And Little White Lies
TTITLE1=When Your In Love
TTITLE2=One More Song
TTITLE3=On The Road Again
TTITLE4=I'm Still Your Fool
TTITLE5=Blue Norwegian Moon
TTITLE6=Rise And Shine
TTITLE7=You've Got What It Takes
TTITLE8=Heart Trouble
TTITLE9=Close To My Heart
TTITLE10=Last Thing On My Mind
TTITLE11=Some Thing Never Change
TTITLE12=His Latest Flame
TTITLE13=Song For Sulls
TTITLE14=Rough Norwegian Roads
TTITLE15=The Way To Your Heart
TTITLE16=My Side Of Town
TTITLE17=Hungry Eyes
EXTD=
EXTT0=
EXTT1=
EXTT2=
EXTT3=
EXTT4=
EXTT5=
EXTT6=
EXTT7=
EXTT8=
EXTT9=
EXTT10=
EXTT11=
EXTT12=
EXTT13=
EXTT14=
EXTT15=
EXTT16=
EXTT17=
PLAYORDER=
